<?xml version="1.0" encoding="utf-8"?>
<!-- Generator: Adobe Illustrator 18.1.1, SVG Export Plug-In . SVG Version: 6.00 Build 0)  -->
<svg version="1.1" id="Layer_1" xmlns="http://www.w3.org/2000/svg" xmlns:xlink="http://www.w3.org/1999/xlink" x="0px" y="0px"
	 viewBox="0 0 38 38" enable-background="new 0 0 38 38" xml:space="preserve">
<g>
	<path fill="#4A4F6A" d="M17.4,17.7c-0.7-0.1-1.7-0.3-2.4-0.3c-5.2,0-8.8,4.2-8.8,9.5c0,5.6,3.7,8.5,8.9,8.5c7,0,11.3-5.2,11.8-12.1
		h1.1l1,3.3C26.5,33.5,20.5,38,12.4,38C5.9,38,0,35.1,0,27.8c0-3.5,1.4-6.2,4.2-8.5c1.8-1.5,4.9-2.7,8-3.1l0.1-0.3
		c-2.6-0.7-4.7-2.4-4.7-6.1C7.6,3.6,13.1,0,19.2,0C26.3,0,28,3.9,28,6c0,2.5-1.5,3.5-2.8,3.5c-1.5,0-2.1-1-1.8-2.1
		c0.2-0.5,0.4-1.4,0.4-1.9c0-2.1-1.3-3.8-4.2-3.8c-4.6,0-6.7,4.9-6.7,8.8c0,3.1,1.3,4.5,2.5,5.1c0.8,0,2.3-0.2,3.5-0.2l0.2,0.6
		L17.4,17.7z M16.3,25c1.8-3.8,4.9-7,8.3-7c2.1,0,4.9,0.2,7.6,0.3c2.6,0.1,3.8-0.7,3.9-2.5c0.1-0.6,0-1.7-0.1-2.3l0.5-0.4
		c0.7,0.1,1.7,1,1.7,2.1c-0.1,2.6-2.3,4.9-4.1,6.1c-1.2,0.8-2.5,1.3-4.2,1.3c-2.2-0.1-5.1-0.3-6.8-0.3c-2.4-0.1-4,1.1-5.6,3.7
		L16.3,25z"/>
</g>
</svg>
